<svg width="469" height="437" fill="none" xmlns="http://www.w3.org/2000/svg">
  <g clip-rule="evenodd" stroke="#9E96C6">
    <path d="M229.233 22.666c-50.722-15.88-102.876-42.369-156.271 6.012-53.395 48.382-86.964 90.763-65.286 145.6 21.678 54.836 110.165 20.68 135.875 69.691 25.71 49.011-30.781 93.492-6.426 137.111 24.354 43.62 43.081 71.576 121.35 43.841 78.268-27.734 71.051-98.303 130.571-139.628 59.519-41.324 123.915-103.188 35.541-213.576-88.373-110.388-144.632-33.17-195.354-49.05Z"/>
    <path d="M235.714 48.582c-41.272-12.887-83.711-34.382-127.158 4.879-43.448 39.26-70.763 73.653-53.124 118.153 17.64 44.499 89.642 16.782 110.563 56.554 20.92 39.772-25.047 75.868-5.23 111.265 19.818 35.397 35.056 58.083 98.743 35.577 63.687-22.507 57.815-79.773 106.246-113.308 48.431-33.534 100.831-83.736 28.921-173.316S276.987 61.47 235.714 48.582Z"/>
    <path d="M247.526 65.345c-33.452-10.515-67.85-28.052-103.065 3.98-35.216 32.032-57.355 60.091-43.058 96.397 14.297 36.305 72.657 13.692 89.614 46.14 16.956 32.449-20.301 61.898-4.239 90.777 16.063 28.879 28.414 47.388 80.034 29.026 51.62-18.362 46.861-65.084 86.115-92.443 39.255-27.36 81.726-68.318 23.441-141.403-58.285-73.084-95.389-21.96-128.842-32.474Z"/>
    <path d="M259.692 85.506c-27.045-8.434-54.853-22.5-83.323 3.192-28.469 25.692-46.368 48.198-34.809 77.318 11.558 29.12 58.738 10.983 72.447 37.009 13.708 26.026-16.412 49.647-3.427 72.811 12.986 23.163 22.971 38.009 64.703 23.281 41.732-14.728 37.884-52.203 69.619-74.147 31.735-21.945 66.071-54.797 18.951-113.417-47.12-58.62-77.117-17.614-104.161-26.047Z"/>
    <path d="M262.21 99.414c-22.048-6.9-44.719-18.409-67.929 2.612s-37.802 39.435-28.379 63.26c9.423 23.826 47.887 8.986 59.063 30.28 11.176 21.294-13.38 40.621-2.793 59.572 10.587 18.952 18.727 31.099 52.749 19.048 34.023-12.05 30.886-42.711 56.758-60.665 25.873-17.955 53.865-44.834 15.45-92.796-38.415-47.962-62.87-14.411-84.919-21.311Z"/>
    <path d="M269.639 108.621c-17.921-5.586-36.348-14.903-55.213 2.114-18.866 17.017-30.726 31.924-23.067 51.211 7.659 19.287 38.923 7.274 48.007 24.512 9.084 17.238-10.875 32.883-2.271 48.225 8.605 15.342 15.222 25.175 42.876 15.42 27.653-9.755 25.104-34.575 46.133-49.11 21.029-14.535 43.781-36.294 12.557-75.12-31.224-38.826-51.101-11.667-69.022-17.252Z"/>
  </g>
</svg>
