<svg width="487" height="453" viewBox="0 0 487 453" fill="none" xmlns="http://www.w3.org/2000/svg">
<g id="Group 17">
<path id="Path 3" fill-rule="evenodd" clip-rule="evenodd" d="M238.03 23.0132C185.353 6.51158 131.189 -21.0118 75.7356 29.2601C20.2827 79.532 -14.5801 123.57 7.93327 180.549C30.4467 237.529 122.344 202.038 149.046 252.965C175.747 303.891 117.078 350.11 142.372 395.434C167.665 440.758 187.114 469.807 268.399 440.988C349.684 412.17 342.189 338.843 404.002 295.904C465.816 252.965 532.694 188.683 440.914 73.9804C349.134 -40.7218 290.707 39.5148 238.03 23.0132Z" stroke="#96A9C6"/>
<path id="Path 3 Copy" fill-rule="evenodd" clip-rule="evenodd" d="M245.045 49.7795C202.143 36.3811 158.03 14.0336 112.867 54.8517C67.7045 95.6698 39.311 131.426 57.6467 177.69C75.9824 223.955 150.827 195.139 172.573 236.488C194.32 277.837 146.538 315.365 167.138 352.165C187.737 388.966 203.577 412.552 269.778 389.153C335.979 365.754 329.876 306.216 380.218 271.352C430.561 236.488 485.029 184.294 410.28 91.1622C335.532 -1.9699 287.947 63.178 245.045 49.7795Z" stroke="#96A9C6"/>
<path id="Path 3 Copy 2" fill-rule="evenodd" clip-rule="evenodd" d="M257.391 67.3926C222.635 56.4767 186.898 38.2699 150.31 71.5249C113.723 104.78 90.7203 133.911 105.575 171.603C120.429 209.296 181.062 185.819 198.68 219.506C216.297 253.194 177.588 283.769 194.276 313.751C210.965 343.733 223.797 362.948 277.428 343.885C331.059 324.821 326.114 276.315 366.898 247.911C407.683 219.506 451.808 176.984 391.253 101.108C330.697 25.2316 292.147 78.3085 257.391 67.3926Z" stroke="#96A9C6"/>
<path id="Path 3 Copy 5" fill-rule="evenodd" clip-rule="evenodd" d="M270.09 89.4539C242.068 80.692 213.255 66.0778 183.756 92.7709C154.258 119.464 135.712 142.847 147.688 173.101C159.664 203.356 208.55 184.512 222.754 211.552C236.958 238.592 205.749 263.134 219.204 287.199C232.659 311.265 243.005 326.689 286.245 311.387C329.485 296.086 325.499 257.151 358.381 234.352C391.263 211.552 426.839 177.42 378.016 116.516C329.193 55.6123 298.112 98.2158 270.09 89.4539Z" stroke="#96A9C6"/>
<path id="Path 3 Copy 4" fill-rule="evenodd" clip-rule="evenodd" d="M273.12 103.262C250.203 96.1068 226.639 84.1719 202.514 105.971C178.389 127.771 163.222 146.867 173.016 171.574C182.811 196.282 222.791 180.893 234.407 202.976C246.024 225.059 220.5 245.101 231.504 264.755C242.508 284.408 250.969 297.005 286.332 284.508C321.695 272.012 318.435 240.215 345.327 221.595C372.219 202.976 401.314 175.101 361.385 125.363C321.456 75.6251 296.037 110.418 273.12 103.262Z" stroke="#96A9C6"/>
<path id="Path 3 Copy 3" fill-rule="evenodd" clip-rule="evenodd" d="M279.571 113.419C260.999 107.615 241.902 97.9328 222.35 115.617C202.799 133.301 190.507 148.792 198.445 168.836C206.382 188.88 238.783 176.395 248.198 194.309C257.612 212.224 236.927 228.482 245.844 244.426C254.762 260.37 261.619 270.588 290.279 260.45C318.938 250.313 316.296 224.519 338.089 209.414C359.883 194.309 383.463 171.697 351.104 131.348C318.744 90.9994 298.144 119.224 279.571 113.419Z" stroke="#96A9C6"/>
</g>
</svg>
