<svg width="883" height="822" fill="none" xmlns="http://www.w3.org/2000/svg">
  <g clip-rule="evenodd" stroke="#96A9C6">
    <path d="M431.564 41.843c-95.688-29.937-194.077-79.869-294.807 11.332C36.027 144.377-27.301 224.268 13.594 327.638c40.896 103.37 207.827 38.985 256.33 131.373 48.503 92.388-58.069 176.237-12.123 258.462 45.945 82.225 81.274 134.924 228.927 82.643 147.654-52.282 134.04-185.308 246.324-263.207 112.283-77.898 233.767-194.516 67.05-402.604C633.384-73.783 527.251 71.779 431.564 41.842Z"/>
    <path d="M443.902 91.172c-77.983-24.314-158.169-64.868-240.262 9.205-82.094 74.073-133.705 138.96-100.376 222.917 33.329 83.956 169.376 31.663 208.905 106.7 39.528 75.037-47.325 143.14-9.881 209.922 37.445 66.783 66.237 109.584 186.572 67.122 120.335-42.463 109.24-150.506 200.75-213.775 91.509-63.269 190.516-157.985 54.644-326.993C608.382-2.738 521.885 115.486 443.902 91.172Z"/>
    <path d="M466.947 123.046c-63.103-19.824-127.989-52.889-194.418 7.504-66.43 60.393-108.193 113.297-81.223 181.748 26.969 68.451 137.057 25.816 169.044 86.995 31.986 61.178-38.296 116.703-7.996 171.152 30.3 54.449 53.599 89.346 150.973 54.725 97.374-34.62 88.396-122.709 162.445-174.293 74.048-51.584 154.164-128.808 44.218-266.603-109.947-137.795-179.939-41.404-243.043-61.228Z"/>
    <path d="M490.21 162.666c-50.939-15.881-103.316-42.369-156.94 6.012-53.623 48.382-87.336 90.763-65.565 145.6 21.77 54.836 110.636 20.68 136.457 69.691 25.82 49.011-30.913 93.492-6.454 137.111 24.459 43.62 43.266 71.576 121.869 43.841 78.604-27.734 71.356-98.303 131.13-139.628 59.775-41.324 124.446-103.188 35.694-213.576-88.752-110.388-145.252-33.17-196.191-49.051Z"/>
    <path d="M495.18 187.732c-41.598-12.997-84.371-34.675-128.162 4.92-43.791 39.594-71.321 74.279-53.543 119.157 17.779 44.877 90.35 16.925 111.435 57.035 21.086 40.11-25.244 76.513-5.27 112.21 19.974 35.698 35.332 58.577 99.522 35.879s58.272-80.451 107.085-114.27c48.814-33.819 101.627-84.448 29.149-174.789s-118.617-27.146-160.216-40.142Z"/>
    <path d="M506.992 206.395c-33.778-10.551-68.51-28.149-104.069 3.994-35.558 32.143-57.914 60.299-43.477 96.731 14.436 36.432 73.365 13.74 90.486 46.301 17.122 32.561-20.498 62.113-4.279 91.092s28.69 47.552 80.813 29.127c52.123-18.426 47.317-65.31 86.954-92.765 39.637-27.454 82.522-68.555 23.669-141.893-58.852-73.338-96.318-22.037-130.097-32.587Z"/>
  </g>
</svg>
